<svg width="28" height="28" viewBox="0 0 28 28" fill="none" xmlns="http://www.w3.org/2000/svg">
<path d="M18.6666 9.33332C18.6666 11.9106 16.5772 14 13.9999 14C11.4226 14 9.33325 11.9106 9.33325 9.33332C9.33325 6.75599 11.4226 4.66666 13.9999 4.66666C16.5772 4.66666 18.6666 6.75599 18.6666 9.33332Z" fill="currentColor"/>
<path d="M17.1295 16.3333H10.8706C10.3077 16.3333 10.0262 16.3333 9.77441 16.3871C8.90302 16.5732 8.14952 17.2271 7.72737 18.1638C7.6054 18.4344 7.51639 18.7559 7.33837 19.3991C7.12446 20.1718 7.01751 20.5582 7.00305 20.8698C6.95203 21.9693 7.54621 22.962 8.42848 23.2513C8.67854 23.3333 9.01675 23.3333 9.69318 23.3333H18.3069C18.9833 23.3333 19.3215 23.3333 19.5715 23.2513C20.4538 22.962 21.048 21.9693 20.997 20.8698C20.9825 20.5582 20.8755 20.1718 20.6617 19.3991C20.4836 18.7559 20.3946 18.4344 20.2726 18.1638C19.8505 17.2271 19.0969 16.5732 18.2256 16.3871C17.9738 16.3333 17.6924 16.3333 17.1295 16.3333Z" fill="currentColor"/>
</svg>
