<svg width="28" height="28" viewBox="0 0 28 28" fill="none" xmlns="http://www.w3.org/2000/svg">
<path d="M3.5 3.5L24.5 24.5" stroke="#F4F7F5" stroke-width="1.5" stroke-linecap="round" stroke-linejoin="round"/>
<path d="M12.348 12.3515C11.9101 12.789 11.664 13.3825 11.6638 14.0015C11.6636 14.6205 11.9093 15.2142 12.3468 15.652C12.7843 16.0898 13.3778 16.3359 13.9968 16.3361C14.6158 16.3364 15.2095 16.0907 15.6473 15.6532" stroke="#F4F7F5" stroke-width="1.5" stroke-linecap="round" stroke-linejoin="round"/>
<path d="M10.9234 6.25915C11.9237 5.973 12.9595 5.82964 13.9999 5.83332C18.6666 5.83332 22.5551 8.55516 25.6666 14C24.7589 15.5878 23.7859 16.9447 22.7464 18.0693M20.2498 20.2405C18.3469 21.5238 16.2656 22.1667 13.9999 22.1667C9.33325 22.1667 5.44475 19.4448 2.33325 14C3.93042 11.2058 5.73175 9.12915 7.73725 7.76882" stroke="#F4F7F5" stroke-width="1.5" stroke-linecap="round" stroke-linejoin="round"/>
</svg>
