<svg width="177" height="50" viewBox="0 0 177 50" fill="none" xmlns="http://www.w3.org/2000/svg">
<path d="M31.1251 29.5627H35.72C35.3016 30.5311 34.7593 31.4043 34.0933 32.1828C33.4463 32.9424 32.7043 33.5974 31.8672 34.1481C31.0299 34.6796 30.1072 35.088 29.0987 35.3728C28.1093 35.6574 27.0723 35.7999 25.9877 35.7999C24.4466 35.7999 23.0005 35.515 21.6497 34.9455C20.2987 34.3758 19.119 33.5974 18.1106 32.6101C17.1212 31.6228 16.3316 30.4645 15.7417 29.1354C15.1709 27.7874 14.8855 26.3538 14.8855 24.8348C14.8855 23.3538 15.1709 21.9583 15.7417 20.6482C16.3125 19.3191 17.0831 18.1703 18.0535 17.202C19.0429 16.2147 20.194 15.4362 21.5069 14.8666C22.8388 14.2969 24.2468 14.0121 25.7309 14.0121C26.8536 14.0121 27.919 14.1545 28.9275 14.4394C29.9358 14.7242 30.8682 15.1419 31.7244 15.6925C32.5806 16.2431 33.3416 16.9172 34.0078 17.7146C34.6926 18.5121 35.2635 19.414 35.72 20.4203H31.3535C30.6303 19.4899 29.8313 18.8159 28.9559 18.3982C28.0997 17.9805 27.0533 17.7716 25.8165 17.7716C24.8272 17.7716 23.9043 17.952 23.048 18.3127C22.1918 18.6735 21.4497 19.1766 20.8219 19.8222C20.194 20.4488 19.6993 21.1988 19.3378 22.0722C18.9953 22.9266 18.8241 23.857 18.8241 24.8634C18.8241 25.8507 19.0048 26.781 19.3664 27.6545C19.7469 28.5279 20.2606 29.2873 20.9076 29.9328C21.5545 30.5785 22.306 31.0911 23.1622 31.4709C24.0184 31.8507 24.9317 32.0404 25.9021 32.0404C26.9297 32.0404 27.8335 31.8507 28.6136 31.4709C29.4126 31.0911 30.2497 30.455 31.1251 29.5627ZM48.7848 35.4297V33.9202C48.0619 34.6227 47.3673 35.1163 46.7014 35.4012C46.0355 35.6671 45.2173 35.7999 44.2469 35.7999C42.249 35.7999 40.746 35.1638 39.7375 33.8917C38.729 32.6006 38.2248 30.6735 38.2248 28.1101V19.6513H42.0207V27.3696C42.0207 29.1354 42.249 30.4075 42.7058 31.186C43.1814 31.9456 43.952 32.3252 45.0175 32.3252C46.2733 32.3252 47.1676 31.9265 47.7002 31.1291C48.233 30.3317 48.4995 28.9835 48.4995 27.0848V19.6513H52.2953V35.4297H48.7848ZM56.0522 35.4297V23.0976H54.1971V19.6513H56.0522V14.3824H59.8481V19.6513H62.1314V23.0976H59.8481V35.4297H56.0522Z" fill="#F4F7F5"/>
<path d="M10 2H4C2.89543 2 2 2.89543 2 4V46C2 47.1046 2.89543 48 4 48H10" stroke="#F4F7F5"/>
<path d="M68.4863 2H74.4863C75.5909 2 76.4863 2.89543 76.4863 4V46C76.4863 47.1046 75.5909 48 74.4863 48H68.4863" stroke="#F4F7F5"/>
<path d="M86.3918 35.4564V14.7502H89.0539V35.4564H86.3918ZM94.3259 35.4564V22.4555H91.4958V20.0739H94.3259V14.7502H96.9319V20.0739H99.9862V22.4555H96.9319V35.4564H94.3259ZM108.714 29.6283H111.516C111.647 30.8238 112.039 31.7392 112.693 32.3743C113.347 33.0094 114.225 33.3268 115.327 33.3268C115.869 33.3268 116.364 33.2429 116.812 33.0748C117.26 32.888 117.643 32.6358 117.961 32.3183C118.279 32.0007 118.531 31.627 118.718 31.1975C118.904 30.7492 118.998 30.2634 118.998 29.7404C118.998 29.1615 118.895 28.6665 118.689 28.2554C118.484 27.8259 118.185 27.4615 117.793 27.1628C117.4 26.8451 116.915 26.5649 116.336 26.3221C115.775 26.0794 115.131 25.8459 114.402 25.6216C113.524 25.3414 112.768 25.024 112.132 24.6691C111.497 24.3142 110.974 23.9218 110.563 23.4922C110.171 23.044 109.882 22.5395 109.695 21.9792C109.508 21.4001 109.414 20.765 109.414 20.0739C109.414 19.252 109.564 18.4955 109.863 17.8043C110.162 17.1132 110.563 16.5154 111.068 16.0111C111.591 15.5068 112.207 15.1145 112.917 14.8343C113.627 14.5354 114.402 14.386 115.243 14.386C116.102 14.386 116.887 14.5261 117.597 14.8063C118.325 15.0678 118.942 15.4507 119.446 15.955C119.969 16.4407 120.38 17.0385 120.679 17.7483C120.978 18.4581 121.137 19.2333 121.155 20.0739H118.409C118.335 19.1025 118.008 18.3273 117.429 17.7483C116.868 17.1692 116.13 16.8797 115.215 16.8797C114.3 16.8797 113.552 17.1786 112.973 17.7763C112.394 18.3554 112.104 19.0932 112.104 19.9898C112.104 20.4008 112.17 20.7743 112.301 21.1106C112.432 21.4281 112.646 21.7177 112.945 21.9792C113.244 22.2407 113.636 22.4928 114.122 22.7358C114.626 22.9598 115.234 23.1841 115.943 23.4081C116.971 23.7258 117.849 24.0807 118.577 24.4728C119.306 24.8464 119.894 25.2762 120.343 25.7617C120.81 26.2475 121.146 26.7984 121.352 27.4148C121.557 28.0314 121.66 28.7317 121.66 29.5164C121.66 30.413 121.501 31.2442 121.183 32.0101C120.866 32.7759 120.417 33.4484 119.838 34.0274C119.278 34.5878 118.605 35.0268 117.821 35.3443C117.055 35.6619 116.214 35.8206 115.299 35.8206C114.365 35.8206 113.506 35.6804 112.721 35.4004C111.936 35.1015 111.255 34.6812 110.675 34.1395C110.096 33.5791 109.639 32.9252 109.302 32.1782C108.966 31.4123 108.77 30.5624 108.714 29.6283ZM124.009 35.4564V14.7502H126.643V21.755C127.166 21.0639 127.81 20.5502 128.576 20.214C129.342 19.8591 130.211 19.6816 131.182 19.6816C133.293 19.6816 134.891 20.3074 135.974 21.5589C137.076 22.8104 137.627 24.6411 137.627 27.0507V35.4564H135.021V27.3309C135.021 25.5936 134.666 24.2954 133.956 23.4361C133.265 22.5582 132.229 22.1193 130.846 22.1193C129.482 22.1193 128.436 22.5582 127.708 23.4361C126.998 24.3142 126.643 25.5749 126.643 27.2187V35.4564H124.009ZM140.358 27.7792C140.358 26.6211 140.563 25.5469 140.974 24.5569C141.385 23.5669 141.955 22.717 142.684 22.0072C143.431 21.2787 144.3 20.7183 145.29 20.326C146.298 19.9151 147.391 19.7096 148.568 19.7096C149.689 19.7096 150.735 19.9151 151.706 20.326C152.678 20.737 153.519 21.3067 154.228 22.0352C154.938 22.7637 155.499 23.6229 155.91 24.6129C156.321 25.5844 156.526 26.6491 156.526 27.8071C156.526 28.9465 156.321 30.0019 155.91 30.9734C155.517 31.9447 154.966 32.7946 154.256 33.5231C153.547 34.2329 152.706 34.7933 151.734 35.2042C150.763 35.6152 149.708 35.8206 148.568 35.8206C147.41 35.8206 146.326 35.6152 145.318 35.2042C144.328 34.7933 143.459 34.2329 142.712 33.5231C141.983 32.7946 141.404 31.9447 140.974 30.9734C140.563 29.9832 140.358 28.9185 140.358 27.7792ZM148.54 33.411C149.306 33.411 150.016 33.2709 150.67 32.9907C151.323 32.7104 151.884 32.3276 152.351 31.8418C152.837 31.3376 153.21 30.7399 153.471 30.0486C153.752 29.3576 153.892 28.6103 153.892 27.8071C153.892 26.9852 153.752 26.2287 153.471 25.5377C153.21 24.8277 152.827 24.2208 152.323 23.7163C151.837 23.212 151.258 22.8197 150.586 22.5395C149.913 22.2594 149.184 22.1193 148.4 22.1193C147.634 22.1193 146.924 22.2687 146.27 22.5677C145.617 22.8477 145.047 23.24 144.561 23.7443C144.094 24.2487 143.72 24.8559 143.44 25.5657C143.16 26.2567 143.02 26.9947 143.02 27.7792C143.02 28.5824 143.16 29.3296 143.44 30.0207C143.72 30.6932 144.103 31.2816 144.589 31.7859C145.093 32.2901 145.682 32.6919 146.354 32.9907C147.027 33.2709 147.755 33.411 148.54 33.411ZM159.282 35.4564V20.0739H161.804V22.4555C162.028 22.0446 162.261 21.6646 162.504 21.3845C162.766 21.1043 163.055 20.8708 163.373 20.684C163.709 20.4972 164.083 20.3571 164.494 20.2637C164.905 20.1703 165.381 20.1143 165.923 20.0956V22.4555C164.578 22.549 163.569 23.1497 162.897 23.8782C162.243 24.588 161.916 25.248 161.916 26.6303V35.4564H159.282ZM169.469 35.4564V22.4555H166.639V20.0739H169.469V14.7502H172.075V20.0739H175.129V22.4555H172.075V35.4564H169.469Z" fill="#4E4E4E"/>
</svg>
